<svg width="619" height="183" viewBox="0 0 619 183" fill="none" xmlns="http://www.w3.org/2000/svg">
<g filter="url(#filter0_dddd_41_106)">
<path d="M4.48 172V0.639989H98.08V8.55999H12.88V76.96H47.44C59.76 76.96 70.16 78.48 78.64 81.52C87.12 84.4 93.52 89.2 97.84 95.92C102.32 102.64 104.56 111.68 104.56 123.04C104.56 133.92 102.48 142.96 98.32 150.16C94.16 157.36 88 162.8 79.84 166.48C71.84 170.16 61.92 172 50.08 172H4.48ZM48.4 164.32C64.56 164.32 76.48 161.04 84.16 154.48C92 147.92 95.92 137.44 95.92 123.04C95.92 112.96 93.92 105.12 89.92 99.52C86.08 93.92 80.4 90.08 72.88 88C65.52 85.92 56.56 84.88 46 84.88H12.88V164.32H48.4ZM189.979 42.64C200.859 42.64 209.739 45.28 216.619 50.56C223.499 55.68 228.619 62.72 231.979 71.68C235.339 80.48 237.019 90.48 237.019 101.68V108.64H143.419C143.419 127.36 147.579 141.76 155.899 151.84C164.379 161.76 176.619 166.72 192.619 166.72C200.299 166.72 206.939 166.16 212.539 165.04C218.299 163.76 224.779 161.52 231.979 158.32V166.48C225.899 169.2 219.739 171.2 213.499 172.48C207.259 173.76 200.219 174.4 192.379 174.4C179.259 174.4 168.459 171.68 159.979 166.24C151.499 160.64 145.179 152.96 141.019 143.2C136.859 133.44 134.779 122.24 134.779 109.6C134.779 97.28 136.859 86.08 141.019 76C145.179 65.92 151.339 57.84 159.499 51.76C167.659 45.68 177.819 42.64 189.979 42.64ZM189.979 50.08C177.019 50.08 166.379 54.48 158.059 63.28C149.899 71.92 145.179 84.56 143.899 101.2H228.379C228.539 91.12 227.179 82.24 224.299 74.56C221.579 66.88 217.339 60.88 211.579 56.56C205.819 52.24 198.619 50.08 189.979 50.08ZM350.772 52.72H307.332V172H299.172V52.72H255.732V45.04H350.772V52.72ZM477.925 108.4C477.925 118 476.805 126.8 474.565 134.8C472.325 142.8 468.885 149.76 464.245 155.68C459.605 161.6 453.765 166.24 446.725 169.6C439.845 172.8 431.685 174.4 422.245 174.4C413.285 174.4 405.365 172.8 398.485 169.6C391.605 166.4 385.845 161.84 381.205 155.92C376.565 150 373.045 143.04 370.645 135.04C368.245 126.88 367.045 118 367.045 108.4C367.045 94.96 369.285 83.36 373.765 73.6C378.245 63.68 384.725 56.08 393.205 50.8C401.685 45.36 411.845 42.64 423.685 42.64C436.325 42.64 446.645 45.52 454.645 51.28C462.645 57.04 468.485 64.88 472.165 74.8C476.005 84.72 477.925 95.92 477.925 108.4ZM375.685 108.4C375.685 119.92 377.365 130.08 380.725 138.88C384.245 147.68 389.445 154.56 396.325 159.52C403.205 164.32 411.845 166.72 422.245 166.72C433.125 166.72 442.005 164.24 448.885 159.28C455.765 154.32 460.885 147.44 464.245 138.64C467.605 129.84 469.285 119.76 469.285 108.4C469.285 97.52 467.765 87.68 464.725 78.88C461.685 70.08 456.805 63.12 450.085 58C443.365 52.88 434.485 50.32 423.445 50.32C408.085 50.32 396.245 55.44 387.925 65.68C379.765 75.92 375.685 90.16 375.685 108.4ZM522.109 45.04V101.92H606.349V45.04H614.749V172H606.349V109.6H522.109V172H513.709V45.04H522.109Z" fill="white"/>
</g>
<defs>
<filter id="filter0_dddd_41_106" x="0.480469" y="0.640015" width="618.269" height="181.76" filterUnits="userSpaceOnUse" color-interpolation-filters="sRGB">
<feFlood flood-opacity="0" result="BackgroundImageFix"/>
<feColorMatrix in="SourceAlpha" type="matrix" values="0 0 0 0 0 0 0 0 0 0 0 0 0 0 0 0 0 0 127 0" result="hardAlpha"/>
<feOffset dy="4"/>
<feGaussianBlur stdDeviation="2"/>
<feComposite in2="hardAlpha" operator="out"/>
<feColorMatrix type="matrix" values="0 0 0 0 0 0 0 0 0 0 0 0 0 0 0 0 0 0 0.25 0"/>
<feBlend mode="normal" in2="BackgroundImageFix" result="effect1_dropShadow_41_106"/>
<feColorMatrix in="SourceAlpha" type="matrix" values="0 0 0 0 0 0 0 0 0 0 0 0 0 0 0 0 0 0 127 0" result="hardAlpha"/>
<feOffset dy="4"/>
<feGaussianBlur stdDeviation="2"/>
<feComposite in2="hardAlpha" operator="out"/>
<feColorMatrix type="matrix" values="0 0 0 0 0 0 0 0 0 0 0 0 0 0 0 0 0 0 0.25 0"/>
<feBlend mode="normal" in2="effect1_dropShadow_41_106" result="effect2_dropShadow_41_106"/>
<feColorMatrix in="SourceAlpha" type="matrix" values="0 0 0 0 0 0 0 0 0 0 0 0 0 0 0 0 0 0 127 0" result="hardAlpha"/>
<feOffset dy="4"/>
<feGaussianBlur stdDeviation="2"/>
<feComposite in2="hardAlpha" operator="out"/>
<feColorMatrix type="matrix" values="0 0 0 0 0 0 0 0 0 0 0 0 0 0 0 0 0 0 0.25 0"/>
<feBlend mode="normal" in2="effect2_dropShadow_41_106" result="effect3_dropShadow_41_106"/>
<feColorMatrix in="SourceAlpha" type="matrix" values="0 0 0 0 0 0 0 0 0 0 0 0 0 0 0 0 0 0 127 0" result="hardAlpha"/>
<feOffset dy="4"/>
<feGaussianBlur stdDeviation="2"/>
<feComposite in2="hardAlpha" operator="out"/>
<feColorMatrix type="matrix" values="0 0 0 0 0 0 0 0 0 0 0 0 0 0 0 0 0 0 0.25 0"/>
<feBlend mode="normal" in2="effect3_dropShadow_41_106" result="effect4_dropShadow_41_106"/>
<feBlend mode="normal" in="SourceGraphic" in2="effect4_dropShadow_41_106" result="shape"/>
</filter>
</defs>
</svg>
